<svg xmlns="http://www.w3.org/2000/svg" version="1.1" xmlns:xlink="http://www.w3.org/1999/xlink" xmlns:svgjs="http://svgjs.com/svgjs" width="1440" height="250" preserveAspectRatio="none" viewBox="0 0 1440 250"><g mask="url(&quot;#SvgjsMask1020&quot;)" fill="none"><path d="M5 250L255 0L499.5 0L249.5 250z" fill="url(#SvgjsLinearGradient1021)"></path><path d="M259.6 250L509.6 0L829.1 0L579.1 250z" fill="url(#SvgjsLinearGradient1021)"></path><path d="M518.2 250L768.2 0L973.7 0L723.7 250z" fill="url(#SvgjsLinearGradient1021)"></path><path d="M714.8000000000001 250L964.8000000000001 0L1107.3000000000002 0L857.3000000000001 250z" fill="url(#SvgjsLinearGradient1021)"></path><path d="M1427 250L1177 0L1069 0L1319 250z" fill="url(#SvgjsLinearGradient1022)"></path><path d="M1193.4 250L943.4000000000001 0L685.4000000000001 0L935.4000000000001 250z" fill="url(#SvgjsLinearGradient1022)"></path><path d="M936.8 250L686.8 0L539.8 0L789.8 250z" fill="url(#SvgjsLinearGradient1022)"></path><path d="M685.1999999999999 250L435.19999999999993 0L249.19999999999993 0L499.19999999999993 250z" fill="url(#SvgjsLinearGradient1022)"></path><path d="M1270.1786489608442 250L1440 80.17864896084421L1440 250z" fill="url(#SvgjsLinearGradient1021)"></path><path d="M0 250L169.8213510391558 250L 0 80.17864896084421z" fill="url(#SvgjsLinearGradient1022)"></path></g><defs><mask id="SvgjsMask1020"><rect width="1440" height="250" fill="#ffffff"></rect></mask><linearGradient x1="0%" y1="100%" x2="100%" y2="0%" id="SvgjsLinearGradient1021"><stop stop-color="rgba(15, 70, 185, 0.2)" offset="0"></stop><stop stop-opacity="0" stop-color="rgba(15, 70, 185, 0.2)" offset="0.66"></stop></linearGradient><linearGradient x1="100%" y1="100%" x2="0%" y2="0%" id="SvgjsLinearGradient1022"><stop stop-color="rgba(15, 70, 185, 0.2)" offset="0"></stop><stop stop-opacity="0" stop-color="rgba(15, 70, 185, 0.2)" offset="0.66"></stop></linearGradient></defs></svg>