<svg xmlns="http://www.w3.org/2000/svg" version="1.1" xmlns:xlink="http://www.w3.org/1999/xlink" xmlns:svgjs="http://svgjs.com/svgjs" width="1440" height="560" preserveAspectRatio="none" viewBox="0 0 1440 560"><g mask="url(&quot;#SvgjsMask1002&quot;)" fill="none"><rect width="1440" height="560" x="0" y="0" fill="#0e2a47"></rect><path d="M 0,257 C 57.6,223.2 172.8,84.4 288,88 C 403.2,91.6 460.8,292 576,275 C 691.2,258 748.8,2.2 864,3 C 979.2,3.8 1036.8,268.4 1152,279 C 1267.2,289.6 1382.4,100.6 1440,56L1440 560L0 560z" fill="#184a7e"></path><path d="M 0,555 C 96,514.2 288,360.6 480,351 C 672,341.4 768,521 960,507 C 1152,493 1344,326.2 1440,281L1440 560L0 560z" fill="#2264ab"></path></g><defs><mask id="SvgjsMask1002"><rect width="1440" height="560" fill="#ffffff"></rect></mask></defs></svg>